<svg width="0" height="0" class="hidden">
  <symbol  xmlns="http://www.w3.org/2000/svg" viewBox="0 0 30 30" id="telegram">
    <path d="M15 30C23.2863 30 30 23.2863 30 15C30 6.71375 23.2863 0 15 0C6.71375 0 0 6.71375 0 15C0 23.2863 6.71375 30 15 30ZM6.86375 14.675L21.3263 9.09875C21.9975 8.85625 22.5837 9.2625 22.3662 10.2775L22.3675 10.2762L19.905 21.8775C19.7225 22.7 19.2337 22.9 18.55 22.5125L14.8 19.7487L12.9912 21.4913C12.7912 21.6913 12.6225 21.86 12.235 21.86L12.5013 18.0438L19.4513 11.765C19.7537 11.4987 19.3837 11.3488 18.985 11.6138L10.3963 17.0212L6.69375 15.8663C5.89 15.6112 5.8725 15.0625 6.86375 14.675Z" ></path>
  </symbol>
  <symbol  xmlns="http://www.w3.org/2000/svg" viewBox="0 0 19 20" id="github">
    <path d="M-4.37114e-07 9.99951C-1.95608e-07 15.5245 4.36167 19.9995 9.74107 19.9995C14.0457 19.9995 17.6962 17.1345 18.9832 13.162C19.0749 12.662 18.7734 12.4787 18.5148 12.4787C18.2835 12.4787 17.6706 12.487 16.8585 12.4912C17.4459 15.2728 15.5517 15.8595 15.5517 15.8595C14.4274 16.3145 14.1267 16.972 14.1267 16.972C13.5228 17.8778 13.5352 16.902 13.5352 16.902C13.603 15.8978 14.5389 15.3703 14.5389 15.3703C16.0283 14.4787 15.5979 13.0295 15.3493 12.4578C14.719 12.3678 14.2903 12.1103 14.0466 11.8245C13.8029 14.0453 12.9652 16.3795 9.23304 16.3795C8.16988 16.3795 7.30085 15.992 6.61933 15.3503C6.37316 15.4628 5.3827 15.8003 4.04116 15.2628C4.04116 15.2628 3.78012 14.4253 5.03988 12.5128C4.82345 11.7128 4.71606 10.8628 4.7111 10.0128C4.71606 9.16284 4.82345 8.31285 5.03988 7.51284C3.78012 5.61285 4.04116 4.77535 4.04116 4.77535C5.3827 4.23785 6.37316 4.57534 6.61933 4.67535C7.30085 4.03785 8.16988 3.65035 9.23304 3.65035C12.9752 3.65035 13.7987 5.98784 14.0383 8.21284C14.3307 7.86284 14.928 7.53784 15.8408 7.53784C17.1444 7.53784 18.1918 7.55034 18.5082 7.55034C18.7635 7.55034 19.0683 7.37534 18.9708 6.86284C17.692 2.86201 14.0391 -0.000488895 9.74107 -0.000488707C4.36167 -0.000488472 -6.7851e-07 4.47701 -4.37114e-07 9.99951Z" ></path>
  </symbol>
  <symbol  xmlns="http://www.w3.org/2000/svg" viewBox="0 0 20 20" id="instagram">
    <path d="M-6.01032e-07 6.25L-2.73196e-07 13.75C-1.22337e-07 17.2012 2.79875 20 6.25 20L13.75 20C17.2013 20 20 17.2012 20 13.75L20 6.25C20 2.79875 17.2012 -7.51891e-07 13.75 -6.01032e-07L6.25 -2.73196e-07C2.79875 -1.22337e-07 -7.51891e-07 2.79875 -6.01032e-07 6.25ZM13.75 1.875C16.1625 1.875 18.125 3.8375 18.125 6.25L18.125 13.75C18.125 16.1625 16.1625 18.125 13.75 18.125L6.25 18.125C3.8375 18.125 1.875 16.1625 1.875 13.75L1.875 6.25C1.875 3.8375 3.8375 1.875 6.25 1.875L13.75 1.875Z" ></path>
    <path d="M5 10C5 12.7612 7.23875 15 10 15C12.7613 15 15 12.7612 15 10C15 7.23875 12.7612 5 10 5C7.23875 5 5 7.23875 5 10ZM13.125 10C13.125 11.7225 11.7225 13.125 10 13.125C8.27625 13.125 6.875 11.7225 6.875 10C6.875 8.2775 8.27625 6.875 10 6.875C11.7225 6.875 13.125 8.2775 13.125 10Z" ></path>
    <path d="M5.29123 4.625C5.29123 4.25704 4.99295 3.95875 4.62499 3.95875C4.25703 3.95875 3.95874 4.25704 3.95874 4.625C3.95874 4.99296 4.25703 5.29125 4.62499 5.29125C4.99295 5.29125 5.29123 4.99296 5.29123 4.625Z" ></path>
  </symbol>
  <symbol   viewBox="0 0 29 30"  xmlns="http://www.w3.org/2000/svg" id="cross">
    <path d="M17.1568 14.5231L28.4489 3.23075C29.1837 2.49623 29.1837 1.30861 28.4489 0.574085C27.7144 -0.160437 26.5267 -0.160437 25.7922 0.574085L14.4998 11.8665L3.20781 0.574085C2.47295 -0.160437 1.28567 -0.160437 0.551149 0.574085C-0.183716 1.30861 -0.183716 2.49623 0.551149 3.23075L11.8432 14.5231L0.551149 25.8155C-0.183716 26.55 -0.183716 27.7376 0.551149 28.4721C0.917206 28.8385 1.39852 29.0226 1.87948 29.0226C2.36045 29.0226 2.84141 28.8385 3.20781 28.4721L14.4998 17.1798L25.7922 28.4721C26.1586 28.8385 26.6396 29.0226 27.1205 29.0226C27.6015 29.0226 28.0825 28.8385 28.4489 28.4721C29.1837 27.7376 29.1837 26.55 28.4489 25.8155L17.1568 14.5231Z"> </path>
  </symbol>
               
</svg>